General
Complete name : /Volumes/data/music/librairies/podcasts/F.Kermesse/FK.1_Le.Gore.Philippe.Bouvard.de.la.mort.mp3
Format : MPEG Audio
File size : 76.8 MiB
Duration : 1 h 23 min
Overall bit rate : 128 kb/s
Album : F Kermesse
Album/Performer : Fucking Kermesse
Part/Position : 1
Track name : FK#1 : Le Gore, Philippe Bouvard de la mort
Track name/Position : 01
Performer : Fucking Kermesse
Genre : Podcast
Recorded date : 2014
Writing library : LAME3.99r
Cover : Yes
Cover type : Cover (front)
Cover MIME : image/jpeg
Comment : Le podcast qui explore les bas-fonds de la pop-culture

Audio
Format : MPEG Audio
Format version : Version 1
Format profile : Layer 3
Duration : 1 h 23 min
Bit rate mode : Constant
Bit rate : 128 kb/s
Channel(s) : 2 channels
Sampling rate : 44.1 kHz
Frame rate : 38.281 FPS (1152 SPF)
Compression mode : Lossy
Stream size : 76.8 MiB (100%)
Writing library : LAME3.99r
Encoding settings : -m s -V 4 -q 3 -lowpass 17 -b 128

Image
Format : JPEG
Width : 512 pixels
Height : 512 pixels
Color space : YUV
Chroma subsampling : 4:2:0
Bit depth : 8 bits
Compression mode : Lossy
Stream size : 28.1 KiB (0%)
